<svg width="73" height="14" viewBox="0 0 73 14" fill="none" xmlns="http://www.w3.org/2000/svg">
<path d="M5.56584 11.13C4.64717 11.13 3.81517 10.9307 3.06984 10.532C2.33317 10.1247 1.7525 9.56567 1.32784 8.855C0.911836 8.14433 0.703836 7.34267 0.703836 6.45C0.703836 5.55733 0.916169 4.75567 1.34084 4.045C1.7655 3.33433 2.34617 2.77967 3.08284 2.381C3.82817 1.97367 4.66017 1.77 5.57884 1.77C6.32417 1.77 7.0045 1.9 7.61984 2.16C8.23517 2.42 8.75517 2.797 9.17984 3.291L8.08784 4.318C7.42917 3.60733 6.61884 3.252 5.65684 3.252C5.03284 3.252 4.47384 3.39067 3.97984 3.668C3.48584 3.93667 3.10017 4.31367 2.82284 4.799C2.5455 5.28433 2.40684 5.83467 2.40684 6.45C2.40684 7.06533 2.5455 7.61567 2.82284 8.101C3.10017 8.58633 3.48584 8.96767 3.97984 9.245C4.47384 9.51367 5.03284 9.648 5.65684 9.648C6.61884 9.648 7.42917 9.28833 8.08784 8.569L9.17984 9.609C8.75517 10.103 8.23084 10.48 7.60684 10.74C6.9915 11 6.31117 11.13 5.56584 11.13ZM13.5092 11.091C12.8072 11.091 12.1746 10.9393 11.6112 10.636C11.0479 10.3327 10.6059 9.91233 10.2852 9.375C9.97324 8.829 9.81724 8.21367 9.81724 7.529C9.81724 6.84433 9.97324 6.23333 10.2852 5.696C10.6059 5.15867 11.0479 4.73833 11.6112 4.435C12.1746 4.13167 12.8072 3.98 13.5092 3.98C14.2199 3.98 14.8569 4.13167 15.4202 4.435C15.9836 4.73833 16.4212 5.15867 16.7332 5.696C17.0539 6.23333 17.2142 6.84433 17.2142 7.529C17.2142 8.21367 17.0539 8.829 16.7332 9.375C16.4212 9.91233 15.9836 10.3327 15.4202 10.636C14.8569 10.9393 14.2199 11.091 13.5092 11.091ZM13.5092 9.7C14.1072 9.7 14.6012 9.50067 14.9912 9.102C15.3812 8.70333 15.5762 8.179 15.5762 7.529C15.5762 6.879 15.3812 6.35467 14.9912 5.956C14.6012 5.55733 14.1072 5.358 13.5092 5.358C12.9112 5.358 12.4172 5.55733 12.0272 5.956C11.6459 6.35467 11.4552 6.879 11.4552 7.529C11.4552 8.179 11.6459 8.70333 12.0272 9.102C12.4172 9.50067 12.9112 9.7 13.5092 9.7ZM22.6161 3.98C23.2921 3.98 23.8945 4.12733 24.4231 4.422C24.9605 4.71667 25.3808 5.13267 25.6841 5.67C25.9875 6.20733 26.1391 6.827 26.1391 7.529C26.1391 8.231 25.9875 8.855 25.6841 9.401C25.3808 9.93833 24.9605 10.3543 24.4231 10.649C23.8945 10.9437 23.2921 11.091 22.6161 11.091C21.6801 11.091 20.9391 10.779 20.3931 10.155V13.522H18.7681V4.058H20.3151V4.968C20.5838 4.63867 20.9131 4.39167 21.3031 4.227C21.7018 4.06233 22.1395 3.98 22.6161 3.98ZM22.4341 9.7C23.0321 9.7 23.5218 9.50067 23.9031 9.102C24.2931 8.70333 24.4881 8.179 24.4881 7.529C24.4881 6.879 24.2931 6.35467 23.9031 5.956C23.5218 5.55733 23.0321 5.358 22.4341 5.358C22.0441 5.358 21.6931 5.449 21.3811 5.631C21.0691 5.80433 20.8221 6.05567 20.6401 6.385C20.4581 6.71433 20.3671 7.09567 20.3671 7.529C20.3671 7.96233 20.4581 8.34367 20.6401 8.673C20.8221 9.00233 21.0691 9.258 21.3811 9.44C21.6931 9.61333 22.0441 9.7 22.4341 9.7ZM27.6803 4.058H29.3053V11H27.6803V4.058ZM28.4993 2.914C28.2046 2.914 27.9576 2.823 27.7583 2.641C27.5589 2.45033 27.4593 2.21633 27.4593 1.939C27.4593 1.66167 27.5589 1.432 27.7583 1.25C27.9576 1.05933 28.2046 0.964 28.4993 0.964C28.7939 0.964 29.0409 1.055 29.2403 1.237C29.4396 1.41033 29.5393 1.63133 29.5393 1.9C29.5393 2.186 29.4396 2.42867 29.2403 2.628C29.0496 2.81867 28.8026 2.914 28.4993 2.914ZM34.0901 3.98C35.1127 3.98 35.8927 4.227 36.4301 4.721C36.9761 5.20633 37.2491 5.943 37.2491 6.931V11H35.7151V10.155C35.5157 10.4583 35.2297 10.6923 34.8571 10.857C34.4931 11.013 34.0511 11.091 33.5311 11.091C33.0111 11.091 32.5561 11.0043 32.1661 10.831C31.7761 10.649 31.4727 10.402 31.2561 10.09C31.0481 9.76933 30.9441 9.40967 30.9441 9.011C30.9441 8.387 31.1737 7.88867 31.6331 7.516C32.1011 7.13467 32.8334 6.944 33.8301 6.944H35.6241V6.84C35.6241 6.35467 35.4767 5.982 35.1821 5.722C34.8961 5.462 34.4671 5.332 33.8951 5.332C33.5051 5.332 33.1194 5.39267 32.7381 5.514C32.3654 5.63533 32.0491 5.80433 31.7891 6.021L31.1521 4.838C31.5161 4.56067 31.9537 4.34833 32.4651 4.201C32.9764 4.05367 33.5181 3.98 34.0901 3.98ZM33.8691 9.908C34.2764 9.908 34.6361 9.817 34.9481 9.635C35.2687 9.44433 35.4941 9.17567 35.6241 8.829V8.023H33.9471C33.0111 8.023 32.5431 8.33067 32.5431 8.946C32.5431 9.24067 32.6601 9.47467 32.8941 9.648C33.1281 9.82133 33.4531 9.908 33.8691 9.908ZM40.8816 5.072C41.3496 4.344 42.1729 3.98 43.3516 3.98V5.527C43.2129 5.501 43.0872 5.488 42.9746 5.488C42.3419 5.488 41.8479 5.67433 41.4926 6.047C41.1372 6.411 40.9596 6.93967 40.9596 7.633V11H39.3346V4.058H40.8816V5.072ZM48.3863 1.354H50.0113V11H48.3863V1.354ZM52.1441 4.058H53.7691V11H52.1441V4.058ZM52.9631 2.914C52.6685 2.914 52.4215 2.823 52.2221 2.641C52.0228 2.45033 51.9231 2.21633 51.9231 1.939C51.9231 1.66167 52.0228 1.432 52.2221 1.25C52.4215 1.05933 52.6685 0.964 52.9631 0.964C53.2578 0.964 53.5048 1.055 53.7041 1.237C53.9035 1.41033 54.0031 1.63133 54.0031 1.9C54.0031 2.186 53.9035 2.42867 53.7041 2.628C53.5135 2.81867 53.2665 2.914 52.9631 2.914ZM59.8409 3.98C60.7163 3.98 61.4183 4.23567 61.9469 4.747C62.4756 5.25833 62.7399 6.01667 62.7399 7.022V11H61.1149V7.23C61.1149 6.62333 60.9719 6.16833 60.6859 5.865C60.3999 5.553 59.9926 5.397 59.4639 5.397C58.8659 5.397 58.3936 5.579 58.0469 5.943C57.7003 6.29833 57.5269 6.814 57.5269 7.49V11H55.9019V4.058H57.4489V4.955C57.7176 4.63433 58.0556 4.39167 58.4629 4.227C58.8703 4.06233 59.3296 3.98 59.8409 3.98ZM67.6354 8.023L66.4264 9.167V11H64.8014V1.354H66.4264V7.178L69.7934 4.058H71.7434L68.8444 6.97L72.0164 11H70.0404L67.6354 8.023Z" fill="#006DFF"/>
<path d="M0.131836 12.3H72.0033V12.95H0.131836V12.3Z" fill="#006DFF"/>
</svg>
