<svg  height="16" viewBox="0 0 60 42" fill="none" xmlns="http://www.w3.org/2000/svg">
    <g clip-path="url(#clip0_4782_4517)">
        <g clip-path="url(#clip1_4782_4517)">
            <path d="M10.3545 8.39098H2.42831C2.0362 8.38417 1.64847 8.47518 1.2994 8.65594C0.950319 8.83671 0.650644 9.10167 0.426859 9.42742C0.203073 9.75316 0.062068 10.1296 0.0163084 10.5236C-0.0294512 10.9176 0.0214433 11.3169 0.164493 11.6862L12.153 41.6686L16.8817 20.9384C17.0168 20.3412 16.9677 19.7164 16.7409 19.1484L13.2073 10.3059C12.9738 9.73612 12.5777 9.24962 12.0696 8.90854C11.5614 8.56746 10.9644 8.38728 10.3545 8.39098Z" fill="white"/>
            <path d="M38.8354 0.00022607H30.0416C29.4217 -0.00291918 28.8155 0.183911 28.3026 0.536113C27.7898 0.888315 27.3945 1.38937 27.1687 1.97329L12.1609 41.6698H24.112C24.732 41.6738 25.3387 41.4873 25.8516 41.135C26.3646 40.7827 26.7598 40.2812 26.9849 39.6968L40.8895 2.9293C41.0098 2.59746 41.0484 2.24103 41.0021 1.89072C40.9559 1.54041 40.826 1.20674 40.6239 0.918479C40.4217 0.630214 40.1533 0.396003 39.8417 0.236032C39.5302 0.0760616 39.1848 -0.00486378 38.8354 0.00022607Z" fill="white"/>
        </g>
    </g>
</svg>